<svg xmlns="http://www.w3.org/2000/svg" width="1920" height="1080" viewBox="0 0 1920 1080">
  <defs>
    <linearGradient id="g" x1="0" y1="0" x2="0" y2="1">
      <stop offset="0" stop-color="#1a1a1a"/>
      <stop offset="1" stop-color="#0a0a0a"/>
    </linearGradient>
  </defs>
  <rect width="1920" height="1080" fill="url(#g)"/>
  <g stroke="#2e2e2e" stroke-width="1" opacity="0.35"><line x1="80" y1="0" x2="80" y2="1080" /><line x1="160" y1="0" x2="160" y2="1080" /><line x1="240" y1="0" x2="240" y2="1080" /><line x1="320" y1="0" x2="320" y2="1080" /><line x1="400" y1="0" x2="400" y2="1080" /><line x1="480" y1="0" x2="480" y2="1080" /><line x1="560" y1="0" x2="560" y2="1080" /><line x1="640" y1="0" x2="640" y2="1080" /><line x1="720" y1="0" x2="720" y2="1080" /><line x1="800" y1="0" x2="800" y2="1080" /><line x1="880" y1="0" x2="880" y2="1080" /><line x1="960" y1="0" x2="960" y2="1080" /><line x1="1040" y1="0" x2="1040" y2="1080" /><line x1="1120" y1="0" x2="1120" y2="1080" /><line x1="1200" y1="0" x2="1200" y2="1080" /><line x1="1280" y1="0" x2="1280" y2="1080" /><line x1="1360" y1="0" x2="1360" y2="1080" /><line x1="1440" y1="0" x2="1440" y2="1080" /><line x1="1520" y1="0" x2="1520" y2="1080" /><line x1="1600" y1="0" x2="1600" y2="1080" /><line x1="1680" y1="0" x2="1680" y2="1080" /><line x1="1760" y1="0" x2="1760" y2="1080" /><line x1="1840" y1="0" x2="1840" y2="1080" /><line x1="0" y1="80" x2="1920" y2="80" /><line x1="0" y1="160" x2="1920" y2="160" /><line x1="0" y1="240" x2="1920" y2="240" /><line x1="0" y1="320" x2="1920" y2="320" /><line x1="0" y1="400" x2="1920" y2="400" /><line x1="0" y1="480" x2="1920" y2="480" /><line x1="0" y1="560" x2="1920" y2="560" /><line x1="0" y1="640" x2="1920" y2="640" /><line x1="0" y1="720" x2="1920" y2="720" /><line x1="0" y1="800" x2="1920" y2="800" /><line x1="0" y1="880" x2="1920" y2="880" /><line x1="0" y1="960" x2="1920" y2="960" /><line x1="0" y1="1040" x2="1920" y2="1040" /></g>
  <g stroke="#2e2e2e" stroke-width="14" opacity="0.8">
    <line x1="300" y1="1080" x2="300" y2="280"/>
    <line x1="680" y1="1080" x2="680" y2="180"/>
    <line x1="1060" y1="1080" x2="1060" y2="280"/>
    <line x1="1440" y1="1080" x2="1440" y2="180"/>
    <line x1="220" y1="300" x2="1520" y2="300"/>
  </g>
  <polygon points="680,180 1060,80 1440,180" fill="none" stroke="#00843d" stroke-width="10" opacity="0.9"/>
  <text x="120" y="900" font-family="Arial Black, Arial, sans-serif" font-size="240" fill="none" stroke="#2e2e2e" stroke-width="2" opacity="0.5">BUILD</text>
  <g fill="#00843d"><rect x="1800" y="80" width="60" height="10"/><rect x="1850" y="80" width="10" height="60"/></g>
</svg>