<svg xmlns="http://www.w3.org/2000/svg" width="1200" height="900" viewBox="0 0 1200 900">
  <rect width="1200" height="900" fill="#161616"/>
  <g stroke="#2e2e2e" stroke-width="1" opacity="0.4"><line x1="60" y1="0" x2="60" y2="900" /><line x1="120" y1="0" x2="120" y2="900" /><line x1="180" y1="0" x2="180" y2="900" /><line x1="240" y1="0" x2="240" y2="900" /><line x1="300" y1="0" x2="300" y2="900" /><line x1="360" y1="0" x2="360" y2="900" /><line x1="420" y1="0" x2="420" y2="900" /><line x1="480" y1="0" x2="480" y2="900" /><line x1="540" y1="0" x2="540" y2="900" /><line x1="600" y1="0" x2="600" y2="900" /><line x1="660" y1="0" x2="660" y2="900" /><line x1="720" y1="0" x2="720" y2="900" /><line x1="780" y1="0" x2="780" y2="900" /><line x1="840" y1="0" x2="840" y2="900" /><line x1="900" y1="0" x2="900" y2="900" /><line x1="960" y1="0" x2="960" y2="900" /><line x1="1020" y1="0" x2="1020" y2="900" /><line x1="1080" y1="0" x2="1080" y2="900" /><line x1="1140" y1="0" x2="1140" y2="900" /><line x1="0" y1="60" x2="1200" y2="60" /><line x1="0" y1="120" x2="1200" y2="120" /><line x1="0" y1="180" x2="1200" y2="180" /><line x1="0" y1="240" x2="1200" y2="240" /><line x1="0" y1="300" x2="1200" y2="300" /><line x1="0" y1="360" x2="1200" y2="360" /><line x1="0" y1="420" x2="1200" y2="420" /><line x1="0" y1="480" x2="1200" y2="480" /><line x1="0" y1="540" x2="1200" y2="540" /><line x1="0" y1="600" x2="1200" y2="600" /><line x1="0" y1="660" x2="1200" y2="660" /><line x1="0" y1="720" x2="1200" y2="720" /><line x1="0" y1="780" x2="1200" y2="780" /><line x1="0" y1="840" x2="1200" y2="840" /></g>
  
        <g opacity="0.85"><rect x="144" y="198" width="61" height="82.00000000000001" fill="#2e2e2e"/><rect x="144" y="282" width="61" height="82.00000000000001" fill="#1a1a1a"/><rect x="144" y="366" width="61" height="82.00000000000001" fill="#2e2e2e"/><rect x="144" y="450.00000000000006" width="61" height="82.00000000000001" fill="#1a1a1a"/><rect x="144" y="534" width="61" height="82.00000000000001" fill="#2e2e2e"/><rect x="144" y="618" width="61" height="82.00000000000001" fill="#1a1a1a"/><rect x="207" y="198" width="61" height="82.00000000000001" fill="#1a1a1a"/><rect x="207" y="282" width="61" height="82.00000000000001" fill="#2e2e2e"/><rect x="207" y="366" width="61" height="82.00000000000001" fill="#1a1a1a"/><rect x="207" y="450.00000000000006" width="61" height="82.00000000000001" fill="#2e2e2e"/><rect x="207" y="534" width="61" height="82.00000000000001" fill="#1a1a1a"/><rect x="207" y="618" width="61" height="82.00000000000001" fill="#2e2e2e"/><rect x="270" y="198" width="61" height="82.00000000000001" fill="#2e2e2e"/><rect x="270" y="282" width="61" height="82.00000000000001" fill="#1a1a1a"/><rect x="270" y="366" width="61" height="82.00000000000001" fill="#2e2e2e"/><rect x="270" y="450.00000000000006" width="61" height="82.00000000000001" fill="#1a1a1a"/><rect x="270" y="534" width="61" height="82.00000000000001" fill="#2e2e2e"/><rect x="270" y="618" width="61" height="82.00000000000001" fill="#1a1a1a"/><rect x="333" y="198" width="61" height="82.00000000000001" fill="#1a1a1a"/><rect x="333" y="282" width="61" height="82.00000000000001" fill="#2e2e2e"/><rect x="333" y="366" width="61" height="82.00000000000001" fill="#1a1a1a"/><rect x="333" y="450.00000000000006" width="61" height="82.00000000000001" fill="#2e2e2e"/><rect x="333" y="534" width="61" height="82.00000000000001" fill="#1a1a1a"/><rect x="333" y="618" width="61" height="82.00000000000001" fill="#2e2e2e"/><rect x="396" y="198" width="61" height="82.00000000000001" fill="#2e2e2e"/><rect x="396" y="282" width="61" height="82.00000000000001" fill="#1a1a1a"/><rect x="396" y="366" width="61" height="82.00000000000001" fill="#2e2e2e"/><rect x="396" y="450.00000000000006" width="61" height="82.00000000000001" fill="#1a1a1a"/><rect x="396" y="534" width="61" height="82.00000000000001" fill="#2e2e2e"/><rect x="396" y="618" width="61" height="82.00000000000001" fill="#1a1a1a"/><rect x="459" y="198" width="61" height="82.00000000000001" fill="#1a1a1a"/><rect x="459" y="282" width="61" height="82.00000000000001" fill="#2e2e2e"/><rect x="459" y="366" width="61" height="82.00000000000001" fill="#1a1a1a"/><rect x="459" y="450.00000000000006" width="61" height="82.00000000000001" fill="#2e2e2e"/><rect x="459" y="534" width="61" height="82.00000000000001" fill="#1a1a1a"/><rect x="459" y="618" width="61" height="82.00000000000001" fill="#2e2e2e"/><rect x="522" y="198" width="61" height="82.00000000000001" fill="#2e2e2e"/><rect x="522" y="282" width="61" height="82.00000000000001" fill="#1a1a1a"/><rect x="522" y="366" width="61" height="82.00000000000001" fill="#2e2e2e"/><rect x="522" y="450.00000000000006" width="61" height="82.00000000000001" fill="#1a1a1a"/><rect x="522" y="534" width="61" height="82.00000000000001" fill="#2e2e2e"/><rect x="522" y="618" width="61" height="82.00000000000001" fill="#1a1a1a"/><rect x="585" y="198" width="61" height="82.00000000000001" fill="#1a1a1a"/><rect x="585" y="282" width="61" height="82.00000000000001" fill="#2e2e2e"/><rect x="585" y="366" width="61" height="82.00000000000001" fill="#1a1a1a"/><rect x="585" y="450.00000000000006" width="61" height="82.00000000000001" fill="#2e2e2e"/><rect x="585" y="534" width="61" height="82.00000000000001" fill="#1a1a1a"/><rect x="585" y="618" width="61" height="82.00000000000001" fill="#2e2e2e"/></g>
        <rect x="744" y="198" width="312" height="504.00000000000006" fill="none" stroke="#ff5c00" stroke-width="3"/>
  <rect x="0" y="0" width="1200" height="900" fill="none" stroke="#2e2e2e" stroke-width="2"/>
  <text x="48" y="120" font-family="Arial Black, Arial, sans-serif" font-size="120" fill="none" stroke="#ff5c00" stroke-width="2" opacity="0.9">02</text>
  <text x="50" y="840" font-family="Arial Black, Arial, sans-serif" font-size="64" fill="#f4f2ed" letter-spacing="2">BATHROOMS</text>
  <text x="52" y="870" font-family="Arial, sans-serif" font-size="20" fill="#9a9a9a" letter-spacing="6">BUCHANAN FAMILY CONSTRUCTION · 2 / 4</text>
  <g fill="#ff5c00"><rect x="1130" y="40" width="30" height="6"/><rect x="1154" y="40" width="6" height="30"/></g>
</svg>