<svg xmlns="http://www.w3.org/2000/svg" width="1200" height="900" viewBox="0 0 1200 900">
  <rect width="1200" height="900" fill="#161616"/>
  <g stroke="#2e2e2e" stroke-width="1" opacity="0.4"><line x1="60" y1="0" x2="60" y2="900" /><line x1="120" y1="0" x2="120" y2="900" /><line x1="180" y1="0" x2="180" y2="900" /><line x1="240" y1="0" x2="240" y2="900" /><line x1="300" y1="0" x2="300" y2="900" /><line x1="360" y1="0" x2="360" y2="900" /><line x1="420" y1="0" x2="420" y2="900" /><line x1="480" y1="0" x2="480" y2="900" /><line x1="540" y1="0" x2="540" y2="900" /><line x1="600" y1="0" x2="600" y2="900" /><line x1="660" y1="0" x2="660" y2="900" /><line x1="720" y1="0" x2="720" y2="900" /><line x1="780" y1="0" x2="780" y2="900" /><line x1="840" y1="0" x2="840" y2="900" /><line x1="900" y1="0" x2="900" y2="900" /><line x1="960" y1="0" x2="960" y2="900" /><line x1="1020" y1="0" x2="1020" y2="900" /><line x1="1080" y1="0" x2="1080" y2="900" /><line x1="1140" y1="0" x2="1140" y2="900" /><line x1="0" y1="60" x2="1200" y2="60" /><line x1="0" y1="120" x2="1200" y2="120" /><line x1="0" y1="180" x2="1200" y2="180" /><line x1="0" y1="240" x2="1200" y2="240" /><line x1="0" y1="300" x2="1200" y2="300" /><line x1="0" y1="360" x2="1200" y2="360" /><line x1="0" y1="420" x2="1200" y2="420" /><line x1="0" y1="480" x2="1200" y2="480" /><line x1="0" y1="540" x2="1200" y2="540" /><line x1="0" y1="600" x2="1200" y2="600" /><line x1="0" y1="660" x2="1200" y2="660" /><line x1="0" y1="720" x2="1200" y2="720" /><line x1="0" y1="780" x2="1200" y2="780" /><line x1="0" y1="840" x2="1200" y2="840" /></g>
  
        <g stroke="#2e2e2e" stroke-width="10">
          <line x1="216" y1="765" x2="216" y2="180"/>
          <line x1="480" y1="765" x2="480" y2="180"/>
          <line x1="744" y1="765" x2="744" y2="180"/>
          <line x1="1008" y1="765" x2="1008" y2="180"/>
          <line x1="144" y1="252.00000000000003" x2="1080" y2="252.00000000000003"/>
        </g>
        <polygon points="216,180 612,72 1008,180" fill="none" stroke="#00843d" stroke-width="6"/>
  <rect x="0" y="0" width="1200" height="900" fill="none" stroke="#2e2e2e" stroke-width="2"/>
  <text x="48" y="120" font-family="Arial Black, Arial, sans-serif" font-size="120" fill="none" stroke="#00843d" stroke-width="2" opacity="0.9">03</text>
  <text x="50" y="840" font-family="Arial Black, Arial, sans-serif" font-size="64" fill="#f4f2ed" letter-spacing="2">DECKS</text>
  <text x="52" y="870" font-family="Arial, sans-serif" font-size="20" fill="#9a9a9a" letter-spacing="6">BUCHANAN HOME REMODELING · 3 / 4</text>
  <g fill="#00843d"><rect x="1130" y="40" width="30" height="6"/><rect x="1154" y="40" width="6" height="30"/></g>
</svg>